<svg width="13" height="13" viewBox="0 0 13 13" fill="none" xmlns="http://www.w3.org/2000/svg">
<path d="M11.8486 8.09238V4.92129C11.8486 2.27871 10.7916 1.22168 8.14902 1.22168H4.97793C2.33535 1.22168 1.27832 2.27871 1.27832 4.92129V8.09238C1.27832 10.735 2.33535 11.792 4.97793 11.792H8.14902C10.7916 11.792 11.8486 10.735 11.8486 8.09238Z" stroke="#495057" stroke-width="1.01475" stroke-linecap="round" stroke-linejoin="round"/>
<path d="M1.55273 3.92334H11.5734" stroke="#495057" stroke-width="1.01475" stroke-linecap="round" stroke-linejoin="round"/>
<path d="M4.72388 1.27979V3.84837" stroke="#495057" stroke-width="1.01475" stroke-linecap="round" stroke-linejoin="round"/>
<path d="M8.40283 1.27979V3.61054" stroke="#495057" stroke-width="1.01475" stroke-linecap="round" stroke-linejoin="round"/>
<path d="M5.37427 7.80247V7.16825C5.37427 6.35433 5.95035 6.02137 6.65328 6.42833L7.20293 6.74543L7.75259 7.06254C8.45551 7.4695 8.45551 8.13543 7.75259 8.54239L7.20293 8.8595L6.65328 9.17661C5.95035 9.58356 5.37427 9.2506 5.37427 8.43668V7.80247V7.80247Z" stroke="#495057" stroke-width="1.26844" stroke-miterlimit="10" stroke-linecap="round" stroke-linejoin="round"/>
</svg>
