<svg width="184" height="184" viewBox="0 0 184 184" fill="none" xmlns="http://www.w3.org/2000/svg">
<path d="M74.6915 74.6954C83.3471 66.0405 94.9981 61.0435 107.235 60.738C119.471 60.4326 131.357 64.842 140.434 73.0543L142.161 74.6954L169.144 101.689C177.933 110.493 182.935 122.381 183.085 134.819C183.234 147.258 178.52 159.263 169.946 168.276C161.373 177.289 149.618 182.596 137.187 183.068C124.757 183.539 112.634 179.137 103.402 170.799L101.685 169.158L81.4375 148.911C79.7262 147.193 78.7327 144.889 78.6587 142.466C78.5847 140.043 79.4358 137.683 81.0391 135.864C82.6424 134.046 84.8777 132.906 87.2911 132.676C89.7044 132.446 92.1147 133.144 94.0325 134.627L94.9294 135.419L115.177 155.666C120.425 160.945 127.524 163.972 134.967 164.104C142.411 164.237 149.613 161.464 155.046 156.375C160.479 151.286 163.715 144.28 164.069 136.844C164.423 129.409 161.866 122.127 156.941 116.545L155.653 115.181L128.669 88.1874C126.011 85.5288 122.855 83.4198 119.382 81.981C115.908 80.5421 112.186 79.8016 108.426 79.8016C104.667 79.8016 100.944 80.5421 97.4706 81.981C93.9974 83.4198 90.8416 85.5288 88.1834 88.1874C86.3839 89.9255 83.9736 90.8872 81.4718 90.8655C78.97 90.8437 76.5769 89.8402 74.8078 88.0711C73.0387 86.302 72.0352 83.9089 72.0134 81.4071C71.9917 78.9053 72.9534 76.495 74.6915 74.6954ZM13.9684 13.9723C22.6239 5.31735 34.2749 0.320344 46.5114 0.0148742C58.748 -0.290595 70.6338 4.11884 79.7104 12.3311L81.4375 13.9723L101.675 34.2292C103.387 35.9463 104.38 38.2504 104.454 40.6735C104.528 43.0966 103.677 45.457 102.074 47.2754C100.47 49.0937 98.2351 50.2335 95.8218 50.4634C93.4085 50.6933 90.9981 49.996 89.0804 48.5131L88.1834 47.7212L67.9456 27.4833C62.6878 22.2598 55.609 19.2791 48.1985 19.1684C40.7879 19.0577 33.6232 21.8256 28.2118 26.8897C22.8004 31.9538 19.564 38.9194 19.1836 46.321C18.8032 53.7226 21.3084 60.9833 26.1721 66.5755L27.4603 67.9495L54.4536 94.9428C59.8216 100.309 67.1012 103.324 74.6915 103.324C82.2818 103.324 89.5614 100.309 94.9294 94.9428C95.8153 94.0563 96.8671 93.353 98.0248 92.873C99.1825 92.3929 100.423 92.1457 101.677 92.1452C102.93 92.1448 104.171 92.3912 105.329 92.8704C106.487 93.3496 107.54 94.0522 108.426 94.9381C109.313 95.824 110.016 96.8758 110.496 98.0335C110.976 99.1912 111.223 100.432 111.224 101.685C111.224 102.939 110.978 104.18 110.499 105.338C110.019 106.496 109.317 107.548 108.431 108.435C99.7753 117.09 88.1243 122.087 75.8878 122.392C63.6512 122.698 51.7654 118.288 42.6888 110.076L40.9522 108.435L13.9684 81.4414C5.02442 72.4948 0 60.3621 0 47.7116C0 35.0611 5.02442 22.9189 13.9684 13.9723Z" fill="#3B3B3B"/>
</svg>
