<svg width="208" height="208" viewBox="0 0 208 208" fill="none" xmlns="http://www.w3.org/2000/svg">
<g id="uil:arrow-growth">
<path id="Vector" d="M189.972 57.3733C189.093 55.2556 187.41 53.5728 185.292 52.6933C184.251 52.2492 183.132 52.0137 181.999 52H138.666C136.367 52 134.163 52.9131 132.538 54.5384C130.912 56.1637 129.999 58.3681 129.999 60.6667C129.999 62.9652 130.912 65.1696 132.538 66.7949C134.163 68.4202 136.367 69.3333 138.666 69.3333H161.112L112.666 117.78L84.1525 89.18C83.3468 88.3677 82.3883 87.7229 81.3321 87.2829C80.276 86.8429 79.1432 86.6164 77.9991 86.6164C76.855 86.6164 75.7223 86.8429 74.6661 87.2829C73.61 87.7229 72.6515 88.3677 71.8458 89.18L19.8458 141.18C19.0335 141.986 18.3887 142.944 17.9488 144C17.5088 145.056 17.2822 146.189 17.2822 147.333C17.2822 148.477 17.5088 149.61 17.9488 150.666C18.3887 151.722 19.0335 152.681 19.8458 153.487C20.6515 154.299 21.61 154.944 22.6661 155.384C23.7223 155.824 24.855 156.05 25.9991 156.05C27.1432 156.05 28.276 155.824 29.3321 155.384C30.3883 154.944 31.3468 154.299 32.1525 153.487L77.9991 107.553L106.512 136.153C107.318 136.966 108.277 137.61 109.333 138.05C110.389 138.49 111.522 138.717 112.666 138.717C113.81 138.717 114.943 138.49 115.999 138.05C117.055 137.61 118.013 136.966 118.819 136.153L173.332 81.5533V104C173.332 106.299 174.246 108.503 175.871 110.128C177.496 111.754 179.701 112.667 181.999 112.667C184.298 112.667 186.502 111.754 188.127 110.128C189.753 108.503 190.666 106.299 190.666 104V60.6667C190.652 59.5341 190.417 58.4153 189.972 57.3733Z" fill="#3B3B3B"/>
</g>
</svg>
