<svg width="224" height="223" viewBox="0 0 224 223" fill="none" xmlns="http://www.w3.org/2000/svg">
<g id="la:user-friends">
<path id="Vector" d="M63.2188 48.7812C40.2219 48.7812 21.4062 67.5969 21.4062 90.5938C21.4062 104.42 28.2147 116.727 38.6121 124.35C20.2355 133.465 7.46875 152.365 7.46875 174.219H21.4062C21.4062 151.055 40.0546 132.406 63.2188 132.406C86.3829 132.406 105.031 151.055 105.031 174.219H118.969C118.969 151.055 137.617 132.406 160.781 132.406C183.945 132.406 202.594 151.055 202.594 174.219H216.531C216.531 152.358 203.764 133.465 185.388 124.35C190.709 120.473 195.04 115.396 198.029 109.53C201.019 103.665 202.583 97.1771 202.594 90.5938C202.594 67.5969 183.778 48.7812 160.781 48.7812C137.784 48.7812 118.969 67.5969 118.969 90.5938C118.969 104.42 125.777 116.727 136.175 124.35C125.993 129.356 117.565 137.327 112 147.215C106.435 137.327 98.0072 129.356 87.8254 124.35C93.1461 120.473 97.4772 115.396 100.467 109.53C103.456 103.665 105.02 97.1771 105.031 90.5938C105.031 67.5969 86.2156 48.7812 63.2188 48.7812ZM63.2188 62.7188C78.7103 62.7188 91.0938 75.1022 91.0938 90.5938C91.0938 106.085 78.7103 118.469 63.2188 118.469C47.7272 118.469 35.3438 106.085 35.3438 90.5938C35.3438 75.1022 47.7272 62.7188 63.2188 62.7188ZM160.781 62.7188C176.273 62.7188 188.656 75.1022 188.656 90.5938C188.656 106.085 176.273 118.469 160.781 118.469C145.29 118.469 132.906 106.085 132.906 90.5938C132.906 75.1022 145.29 62.7188 160.781 62.7188Z" fill="#3B3B3B"/>
</g>
</svg>
