<svg width="196" height="195" viewBox="0 0 196 195" fill="none" xmlns="http://www.w3.org/2000/svg">
<g id="ri:global-line">
<path id="Vector" d="M98 178.75C53.1256 178.75 16.75 142.374 16.75 97.5C16.75 52.6256 53.1256 16.25 98 16.25C142.874 16.25 179.25 52.6256 179.25 97.5C179.25 142.374 142.874 178.75 98 178.75ZM79.3937 159.794C71.3777 142.791 66.734 124.395 65.7194 105.625H33.5037C35.0848 118.129 40.2631 129.904 48.4096 139.52C56.5561 149.136 67.3201 156.18 79.3937 159.794ZM81.9938 105.625C83.2206 125.442 88.8838 144.056 98 160.485C107.363 143.622 112.832 124.877 114.006 105.625H81.9938ZM162.496 105.625H130.281C129.266 124.395 124.622 142.791 116.606 159.794C128.68 156.18 139.444 149.136 147.59 139.52C155.737 129.904 160.915 118.129 162.496 105.625ZM33.5037 89.375H65.7194C66.734 70.6045 71.3777 52.2087 79.3937 35.2056C67.3201 38.8203 56.5561 45.8636 48.4096 55.4799C40.2631 65.0962 35.0848 76.8714 33.5037 89.375ZM82.0019 89.375H113.998C112.826 70.1236 107.36 51.3787 98 34.515C88.6374 51.378 83.1683 70.123 81.9938 89.375H82.0019ZM116.606 35.2056C124.622 52.2087 129.266 70.6045 130.281 89.375H162.496C160.915 76.8714 155.737 65.0962 147.59 55.4799C139.444 45.8636 128.68 38.8203 116.606 35.2056Z" fill="#3B3B3B"/>
</g>
</svg>
