<svg width="187" height="187" viewBox="0 0 187 187" fill="none" xmlns="http://www.w3.org/2000/svg">
<g id="ri:award-fill">
<path id="Vector" d="M132.458 118.791V172.335C132.458 173.025 132.275 173.702 131.928 174.297C131.581 174.893 131.082 175.386 130.483 175.726C129.883 176.066 129.204 176.24 128.515 176.232C127.825 176.223 127.151 176.032 126.559 175.678L93.4993 155.84L60.4393 175.678C59.8475 176.033 59.1721 176.224 58.4822 176.232C57.7922 176.24 57.1126 176.065 56.5126 175.724C55.9127 175.383 55.4141 174.889 55.0676 174.292C54.7212 173.696 54.5395 173.018 54.541 172.328V118.799C44.4598 110.727 37.1344 99.724 33.5772 87.3092C30.0201 74.8944 30.4068 61.6812 34.6839 49.4957C38.961 37.3102 46.9174 26.754 57.4534 19.2859C67.9895 11.8178 80.585 7.80664 93.4993 7.80664C106.414 7.80664 119.009 11.8178 129.545 19.2859C140.081 26.754 148.038 37.3102 152.315 49.4957C156.592 61.6812 156.979 74.8944 153.421 87.3092C149.864 99.724 142.539 110.727 132.458 118.799V118.791ZM93.4993 116.882C105.898 116.882 117.789 111.957 126.557 103.189C135.324 94.4221 140.249 82.531 140.249 70.1322C140.249 57.7333 135.324 45.8423 126.557 37.0749C117.789 28.3076 105.898 23.3822 93.4993 23.3822C81.1005 23.3822 69.2094 28.3076 60.4421 37.0749C51.6748 45.8423 46.7494 57.7333 46.7494 70.1322C46.7494 82.531 51.6748 94.4221 60.4421 103.189C69.2094 111.957 81.1005 116.882 93.4993 116.882ZM93.4993 101.299C85.2334 101.299 77.3061 98.0152 71.4612 92.1703C65.6163 86.3254 62.3327 78.3981 62.3327 70.1322C62.3327 61.8663 65.6163 53.9389 71.4612 48.094C77.3061 42.2491 85.2334 38.9655 93.4993 38.9655C101.765 38.9655 109.693 42.2491 115.538 48.094C121.382 53.9389 124.666 61.8663 124.666 70.1322C124.666 78.3981 121.382 86.3254 115.538 92.1703C109.693 98.0152 101.765 101.299 93.4993 101.299Z" fill="#3B3B3B"/>
</g>
</svg>
