<svg width="300" height="300" viewBox="0 0 300 300" fill="none" xmlns="http://www.w3.org/2000/svg">
<g clip-path="url(#clip0_1666_41123)">
<path d="M169.688 8.15625C158.813 -2.71875 141.188 -2.71875 130.313 8.15625L8.17529 130.312C-2.69971 141.187 -2.69971 158.794 8.17529 169.65L130.35 291.825C141.225 302.7 158.832 302.7 169.688 291.825L291.863 169.65C302.738 158.775 302.738 141.169 291.863 130.312L169.688 8.15625ZM103.032 113.119C102.427 113.127 101.827 113.012 101.269 112.78C100.711 112.549 100.206 112.206 99.7843 111.772C99.3631 111.339 99.0347 110.824 98.8193 110.259C98.6039 109.694 98.506 109.091 98.5315 108.487C100.313 76.7062 126.319 65.625 150.094 65.625C176.269 65.625 200.194 79.3125 200.194 107.625C200.194 127.875 188.288 137.512 176.869 146.194C163.05 156.675 157.932 160.594 157.932 174.056V176.025C157.932 177.268 157.438 178.46 156.559 179.34C155.68 180.219 154.487 180.712 153.244 180.712H138.057C136.826 180.713 135.645 180.229 134.768 179.366C133.891 178.503 133.389 177.33 133.369 176.1L133.294 172.031C132.582 154.65 142.575 143.944 155.194 134.775C166.257 126.45 173.288 120.975 173.288 109.069C173.288 93.6 161.513 87.1688 148.65 87.1688C133.594 87.1688 125.157 96.1312 123.488 108.431C123.15 111 121.088 113.119 118.5 113.119H103.032ZM146.625 233.925C135.675 233.925 127.707 226.537 127.707 216.544C127.707 206.194 135.675 198.919 146.644 198.919C158.063 198.919 165.919 206.194 165.919 216.544C165.919 226.537 158.044 233.925 146.625 233.925Z" fill="url(#paint0_linear_1666_41123)"/>
</g>
<defs>
<linearGradient id="paint0_linear_1666_41123" x1="150.019" y1="0" x2="150.019" y2="299.981" gradientUnits="userSpaceOnUse">
<stop stop-color="#ABAAAA"/>
<stop offset="1" stop-color="#CCCCCC" stop-opacity="0"/>
</linearGradient>
<clipPath id="clip0_1666_41123">
<rect width="300" height="300" fill="white"/>
</clipPath>
</defs>
</svg>
