<svg width="71" height="33" viewBox="0 0 71 33" fill="none" xmlns="http://www.w3.org/2000/svg">
<path d="M0 6.44831H6.45455V32.2415H0V6.44831ZM32.2727 19.3332V19.9979C32.2727 23.5593 29.383 26.4462 25.8182 26.4462C22.2534 26.4462 19.3636 23.5593 19.3636 19.9979V6.44831H12.9091V19.9979C12.9091 27.1207 18.6885 32.8946 25.8182 32.8946C32.9479 32.8946 38.7273 27.1207 38.7273 19.9979V19.3332H32.2727ZM45.1799 0H38.7253V6.44831H42.5067L51.6344 15.5672V16.6724L42.5067 25.7913H38.7253V32.2396H45.1799L58.089 19.343V12.8947L45.1799 0Z" fill="black"/>
<path d="M6.45459 0H12.9091V6.44831H6.45459V0ZM25.8182 0H19.3637V6.44831H32.2728V0H25.8182ZM32.2728 12.8966H38.7273V6.44831H32.2728V12.8966ZM58.091 12.8966H64.5455V6.44831H58.091V12.8966ZM64.5455 6.44831H71.0001V0H64.5455V6.44831ZM58.091 25.7932H64.5455V19.3449H58.091V25.7932ZM64.5455 32.2415H71.0001V25.7932H64.5455V32.2415Z" fill="#00C48F"/>
</svg>
