<svg width="38" height="38" viewBox="0 0 38 38" fill="none" xmlns="http://www.w3.org/2000/svg">
<path d="M5.01797 0.0498047H32.618C33.883 0.0498047 34.964 0.519805 35.861 1.4363C36.758 2.3528 37.218 3.4573 37.218 4.7498V21.1998C37.218 22.4923 36.758 23.5968 35.861 24.5133C34.964 25.4298 33.883 25.8998 32.618 25.8998H30.318L18.818 37.6498V25.8998H5.01797C3.75297 25.8998 2.67197 25.4298 1.77497 24.5133C0.877969 23.5968 0.417969 22.4923 0.417969 21.1998V4.7498C0.417969 3.4573 0.877969 2.3528 1.77497 1.4363C2.67197 0.519805 3.75297 0.0498047 5.01797 0.0498047ZM30.318 4.7498H5.01797V7.0998H30.318V4.7498ZM32.618 11.7998H5.01797V14.1498H32.618V11.7998Z" fill="#00C48F"/>
</svg>
