<svg width="40" height="40" viewBox="0 0 40 40" fill="none" xmlns="http://www.w3.org/2000/svg">
<path d="M36.0171 30.6057C36.0171 31.1937 35.8864 31.798 35.6087 32.386C35.3311 32.974 34.9717 33.5294 34.4981 34.052C33.6977 34.934 32.8157 35.571 31.8194 35.9794C30.8394 36.3877 29.7777 36.6 28.6344 36.6C26.9684 36.6 25.1881 36.208 23.3097 35.4077C21.4314 34.6074 19.5531 33.5294 17.6911 32.1737C15.8127 30.8017 14.0324 29.2827 12.3337 27.6004C10.6514 25.9017 9.13241 24.1214 7.77675 22.2594C6.43741 20.3974 5.35941 18.5354 4.57541 16.6897C3.79141 14.8277 3.39941 13.0474 3.39941 11.3487C3.39941 10.238 3.59541 9.17635 3.98741 8.19635C4.37941 7.20002 5.00008 6.28535 5.86575 5.46868C6.91108 4.43968 8.05441 3.93335 9.26308 3.93335C9.72041 3.93335 10.1777 4.03135 10.5861 4.22735C11.0107 4.42335 11.3864 4.71735 11.6804 5.14202L15.4697 10.483C15.7637 10.8914 15.9761 11.267 16.1231 11.6264C16.2701 11.9694 16.3517 12.3124 16.3517 12.6227C16.3517 13.0147 16.2374 13.4067 16.0087 13.7823C15.7964 14.158 15.4861 14.55 15.0941 14.942L13.8527 16.2324C13.6731 16.412 13.5914 16.6244 13.5914 16.8857C13.5914 17.0164 13.6077 17.1307 13.6404 17.2614C13.6894 17.392 13.7384 17.49 13.7711 17.588C14.0651 18.127 14.5714 18.8294 15.2901 19.6787C16.0251 20.528 16.8091 21.3937 17.6584 22.2594C18.5404 23.125 19.3897 23.9254 20.2554 24.6604C21.1047 25.379 21.8071 25.869 22.3624 26.163C22.4441 26.1957 22.5421 26.2447 22.6564 26.2937C22.7871 26.3427 22.9177 26.359 23.0647 26.359C23.3424 26.359 23.5547 26.261 23.7344 26.0814L24.9757 24.8564C25.3841 24.448 25.7761 24.1377 26.1517 23.9417C26.5274 23.713 26.9031 23.5987 27.3114 23.5987C27.6217 23.5987 27.9484 23.664 28.3077 23.811C28.6671 23.958 29.0427 24.1704 29.4511 24.448L34.8574 28.2864C35.2821 28.5804 35.5761 28.9234 35.7557 29.3317C35.9191 29.74 36.0171 30.1484 36.0171 30.6057Z" stroke="#00A478" stroke-width="2.45" stroke-miterlimit="10"/>
</svg>
