<svg width="32" height="31" viewBox="0 0 32 31" fill="none" xmlns="http://www.w3.org/2000/svg">
<path d="M21.5025 17.4449C21.6443 16.2926 21.6128 15.2251 21.345 14.1406C21.3135 13.9881 21.3765 13.7508 21.4867 13.6492C22.0696 12.9883 22.6998 12.3613 23.2827 11.6835C24.7635 9.989 24.0704 7.27778 22.0224 6.66776C20.9826 6.36274 20.0374 6.59997 19.2655 7.41334C17.8949 8.85368 16.5401 10.311 15.201 11.7852C14.0195 13.073 13.9565 14.7845 15.0435 16.1231C15.5161 16.6993 16.1305 16.9704 16.9024 17.089C16.7764 17.2585 16.6976 17.3771 16.5873 17.4957C16.1147 18.0041 15.6264 18.5124 15.1695 19.0208C14.9962 19.2241 14.8544 19.2241 14.6339 19.1055C11.5147 17.3432 10.79 12.8866 13.2161 10.1415C14.6496 8.51478 16.1305 6.92193 17.6428 5.37992C19.6436 3.34651 22.8573 3.3804 24.8738 5.39687C26.906 7.43029 27.1738 10.8532 25.3779 13.1408C24.4484 14.327 23.3457 15.3945 22.3374 16.5129C22.0539 16.801 21.7703 17.1229 21.5025 17.4449Z" fill="#171717"/>
<path d="M15.4995 12.9036C15.72 12.6494 15.8933 12.446 16.0824 12.2427C16.4762 11.8191 16.8858 11.3954 17.2796 10.9549C17.4372 10.7685 17.5632 10.7515 17.7838 10.8701C20.8872 12.5985 21.6434 17.0382 19.2488 19.8002C17.8153 21.4608 16.3029 23.0537 14.7748 24.6296C12.7741 26.663 9.56033 26.6122 7.55961 24.5788C5.54314 22.5453 5.27533 19.1394 7.05549 16.8687C8.01647 15.6317 9.15074 14.5472 10.2062 13.378C10.4583 13.1069 10.6946 12.8019 10.9782 12.5477C10.7891 13.7 10.8521 14.8014 11.1042 15.9028C11.1357 16.0215 11.0569 16.2248 10.9624 16.3265C10.3323 17.0212 9.65486 17.6821 9.05621 18.4107C7.66989 20.0883 8.41031 22.7487 10.4268 23.3248C11.4508 23.6298 12.396 23.3926 13.1522 22.5962C14.5385 21.1389 15.8933 19.6816 17.2481 18.1904C18.3982 16.9365 18.4612 15.2589 17.4372 13.9203C17.0276 13.395 16.4762 13.1069 15.8618 12.9713C15.7515 12.9374 15.6728 12.9374 15.4995 12.9036Z" fill="#171717"/>
</svg>
