<svg width="27" height="27" viewBox="0 0 27 27" fill="none" xmlns="http://www.w3.org/2000/svg">
<g clip-path="url(#clip0_270_355)">
<path d="M22.4725 22.5603H18.6502V16.5743C18.6502 15.1469 18.6247 13.3093 16.6622 13.3093C14.6714 13.3093 14.3668 14.8646 14.3668 16.4704V22.5599H10.5446V10.2502H14.2139V11.9325H14.2653C14.6325 11.3046 15.1632 10.7881 15.8007 10.4379C16.4383 10.0877 17.1589 9.91703 17.8858 9.944C21.7599 9.944 22.4741 12.4923 22.4741 15.8074L22.4725 22.5603V22.5603ZM6.23164 8.56769C5.00658 8.56789 4.01329 7.5749 4.01309 6.34984C4.01289 5.12478 5.00577 4.13149 6.23083 4.13129C7.45589 4.13099 8.44918 5.12397 8.44938 6.34903C8.44949 6.93733 8.2159 7.50158 7.79999 7.91766C7.38409 8.33373 6.81994 8.56755 6.23164 8.56769M8.14284 22.5604H4.31651V10.2502H8.14274V22.5603L8.14284 22.5604ZM24.3781 0.581467H2.39583C1.35689 0.569778 0.504885 1.40204 0.492188 2.44097V24.5149C0.504481 25.5544 1.35639 26.3874 2.39573 26.3766H24.3781C25.4196 26.3895 26.2749 25.5564 26.2893 24.5149V2.43926C26.2745 1.39831 25.4191 0.56615 24.3781 0.579754" fill="#171717"/>
</g>
<defs>
<clipPath id="clip0_270_355">
<rect width="25.7971" height="25.7971" fill="white" transform="translate(0.492188 0.57959)"/>
</clipPath>
</defs>
</svg>
