<svg width="40" height="40" viewBox="0 0 40 40" fill="none" xmlns="http://www.w3.org/2000/svg">
<path d="M14.0161 31.2999H13.1994C6.66608 31.2999 3.39941 29.6665 3.39941 21.4999V13.3332C3.39941 6.79987 6.66608 3.5332 13.1994 3.5332H26.2661C32.7994 3.5332 36.0661 6.79987 36.0661 13.3332V21.4999C36.0661 28.0332 32.7994 31.2999 26.2661 31.2999H25.4494C24.9431 31.2999 24.4531 31.5449 24.1427 31.9532L21.6927 35.2199C20.6147 36.6572 18.8507 36.6572 17.7727 35.2199L15.3227 31.9532C15.0614 31.5939 14.4571 31.2999 14.0161 31.2999Z" stroke="#00A478" stroke-width="2.45" stroke-miterlimit="10" stroke-linecap="round" stroke-linejoin="round"/>
<path d="M26.2608 18.2332H26.2755" stroke="#00A478" stroke-width="3.26667" stroke-linecap="round" stroke-linejoin="round"/>
<path d="M19.7257 18.2332H19.7403" stroke="#00A478" stroke-width="3.26667" stroke-linecap="round" stroke-linejoin="round"/>
<path d="M13.1905 18.2332H13.2052" stroke="#00A478" stroke-width="3.26667" stroke-linecap="round" stroke-linejoin="round"/>
</svg>
