<svg width="240" height="240" viewBox="0 0 240 240" fill="none" xmlns="http://www.w3.org/2000/svg">
<path d="M120 20C64.9 20 20 64.9 20 120C20 175.1 64.9 220 120 220C175.1 220 220 175.1 220 120C220 64.9 175.1 20 120 20ZM167.8 97L111.1 153.7C109.7 155.1 107.8 155.9 105.8 155.9C103.8 155.9 101.9 155.1 100.5 153.7L72.2 125.4C69.3 122.5 69.3 117.7 72.2 114.8C75.1 111.9 79.9 111.9 82.8 114.8L105.8 137.8L157.2 86.4C160.1 83.5 164.9 83.5 167.8 86.4C170.7 89.3 170.7 94 167.8 97Z" fill="#00A478"/>
</svg>
