<svg width="32" height="31" viewBox="0 0 32 31" fill="none" xmlns="http://www.w3.org/2000/svg">
<path d="M27.9085 8.95025C27.4146 9.70406 26.8038 10.3604 26.0889 10.8998C25.764 11.1467 25.6925 11.4067 25.686 11.7901C25.5301 16.7029 23.5936 20.7514 19.4021 23.3833C14.7557 26.3011 9.90134 26.2166 5.0925 23.5977C5.02752 23.5587 4.96903 23.5002 4.76758 23.3378C7.36695 23.5262 9.60242 22.9414 11.7079 21.3818C10.4212 21.2388 9.40096 20.8359 8.56267 20.0366C8.12077 19.6142 7.78285 19.1268 7.50992 18.5809C7.32146 18.1975 7.25648 17.9636 7.84134 18.0676C8.27024 18.1455 8.70563 18.113 9.21251 17.9376C6.99004 17.1188 5.73585 15.6436 5.61237 13.2132C6.30771 13.4407 6.88607 13.7266 7.56841 13.7266C5.5149 11.3807 5.0795 9.1452 6.26872 7.51409C6.71711 7.92349 7.1785 8.33939 7.63339 8.75529C9.90134 10.8283 12.5657 12.0045 15.6135 12.3359C15.9514 12.3749 16.1463 12.3619 16.1009 11.907C15.8864 9.71706 16.7182 8.01447 18.6872 7.02021C20.6238 6.03895 22.4758 6.34437 24.1199 7.76753C24.3474 7.96248 24.5488 7.95599 24.8023 7.8975C25.6666 7.68305 26.4789 7.33213 27.3886 6.86425C27.0507 7.94949 26.4334 8.69031 25.5366 9.37914C26.4334 9.39214 27.1027 9.02823 27.811 8.87227C27.85 8.89826 27.8825 8.92425 27.9085 8.95025Z" fill="#171717"/>
<path d="M25.9844 9.48503C26.0062 9.46864 26.0281 9.4468 26.0554 9.43042C26.0554 9.46864 26.0608 9.51233 26.0608 9.55055C26.039 9.53417 26.0117 9.51233 25.9844 9.48503Z" fill="#171717"/>
</svg>
