<svg width="35" height="35" viewBox="0 0 35 35" fill="none" xmlns="http://www.w3.org/2000/svg">
<path d="M15.6962 1.89014C12.7755 2.21654 10.0064 3.36098 7.70743 5.19176C5.40851 7.02253 3.67324 9.46523 2.70135 12.2387C1.72945 15.0122 1.56043 18.0037 2.21374 20.869C2.86704 23.7344 4.31612 26.357 6.3942 28.435C8.47227 30.5131 11.0949 31.9622 13.9602 32.6155C16.8255 33.2688 19.817 33.0998 22.5905 32.1279C25.364 31.156 27.8067 29.4207 29.6375 27.1218C31.4683 24.8229 32.6127 22.0537 32.9391 19.1331H15.6962V1.89014Z" stroke="#868E96" stroke-width="2.22256" stroke-linecap="round" stroke-linejoin="round"/>
<path d="M32.939 14.1143H21.8262V3.00146C24.3885 3.91051 26.7157 5.37982 28.6382 7.30229C30.5606 9.22476 32.0299 11.552 32.939 14.1143Z" stroke="#868E96" stroke-width="2.22256" stroke-linecap="round" stroke-linejoin="round"/>
</svg>
