<svg width="35" height="34" viewBox="0 0 35 34" fill="none" xmlns="http://www.w3.org/2000/svg">
<path d="M5.56272 26.7039C9.19017 24.6535 13.2874 23.579 17.4542 23.5854C21.7758 23.5854 25.833 24.7176 29.3456 26.7039M22.6401 13.2134C22.6401 14.5888 22.0938 15.9079 21.1212 16.8804C20.1486 17.853 18.8296 18.3994 17.4542 18.3994C16.0788 18.3994 14.7597 17.853 13.7871 16.8804C12.8146 15.9079 12.2682 14.5888 12.2682 13.2134C12.2682 11.838 12.8146 10.5189 13.7871 9.54636C14.7597 8.5738 16.0788 8.02743 17.4542 8.02743C18.8296 8.02743 20.1486 8.5738 21.1212 9.54636C22.0938 10.5189 22.6401 11.838 22.6401 13.2134ZM33.0121 16.6707C33.0121 18.7138 32.6097 20.7369 31.8278 22.6245C31.046 24.5121 29.9 26.2271 28.4553 27.6718C27.0106 29.1165 25.2955 30.2625 23.4079 31.0444C21.5204 31.8262 19.4973 32.2286 17.4542 32.2286C15.4111 32.2286 13.388 31.8262 11.5004 31.0444C9.61283 30.2625 7.89774 29.1165 6.45305 27.6718C5.00836 26.2271 3.86238 24.5121 3.08052 22.6245C2.29866 20.7369 1.89624 18.7138 1.89624 16.6707C1.89624 12.5445 3.53537 8.58728 6.45305 5.6696C9.37073 2.75193 13.3279 1.11279 17.4542 1.11279C21.5804 1.11279 25.5376 2.75193 28.4553 5.6696C31.373 8.58728 33.0121 12.5445 33.0121 16.6707Z" stroke="#868E96" stroke-width="2.22256" stroke-linecap="round" stroke-linejoin="round"/>
</svg>
