<svg width="17" height="16" viewBox="0 0 17 16" fill="none" xmlns="http://www.w3.org/2000/svg">
<path d="M14.9613 10.1965V6.35219C14.9613 3.14862 13.6798 1.86719 10.4763 1.86719H6.63197C3.4284 1.86719 2.14697 3.14862 2.14697 6.35219V10.1965C2.14697 13.4 3.4284 14.6815 6.63197 14.6815H10.4763C13.6798 14.6815 14.9613 13.4 14.9613 10.1965Z" stroke="#495057" stroke-width="1.23017" stroke-linecap="round" stroke-linejoin="round"/>
<path d="M2.47949 5.14062H14.6274" stroke="#495057" stroke-width="1.23017" stroke-linecap="round" stroke-linejoin="round"/>
<path d="M6.32373 1.9375V5.05137" stroke="#495057" stroke-width="1.23017" stroke-linecap="round" stroke-linejoin="round"/>
<path d="M10.7837 1.9375V4.76305" stroke="#495057" stroke-width="1.23017" stroke-linecap="round" stroke-linejoin="round"/>
<path d="M7.1123 9.84419V9.07533C7.1123 8.08863 7.81068 7.68498 8.66283 8.17833L9.32918 8.56276L9.99552 8.94719C10.8477 9.44054 10.8477 10.2478 9.99552 10.7412L9.32918 11.1256L8.66283 11.51C7.81068 12.0034 7.1123 11.5997 7.1123 10.613V9.84419V9.84419Z" stroke="#495057" stroke-width="1.53771" stroke-miterlimit="10" stroke-linecap="round" stroke-linejoin="round"/>
</svg>
