<svg width="149" height="149" viewBox="0 0 149 149" fill="none" xmlns="http://www.w3.org/2000/svg">
<path opacity="0.3" d="M62.0833 102.438C62.0833 80.212 80.2117 62.0837 102.438 62.0837C107.963 62.0837 113.178 63.2012 117.958 65.1878V31.042H105.542V49.667H43.4583V31.042H31.0417V117.959H65.1875C63.2008 113.178 62.0833 107.963 62.0833 102.438Z" fill="#B2FFEA"/>
<path d="M65.1875 117.958H31.0417V31.0413H43.4583V49.6663H105.542V31.0413H117.958V65.1872C122.615 67.1118 126.774 69.9055 130.375 73.3822V31.0413C130.375 24.2122 124.788 18.6247 117.958 18.6247H92.0075C89.4 11.423 82.5708 6.20801 74.5 6.20801C66.4292 6.20801 59.6 11.423 56.9925 18.6247H31.0417C24.2125 18.6247 18.625 24.2122 18.625 31.0413V117.958C18.625 124.787 24.2125 130.375 31.0417 130.375H73.3825C69.9124 126.773 67.1345 122.564 65.1875 117.958ZM74.5 18.6247C77.9146 18.6247 80.7083 21.4184 80.7083 24.833C80.7083 28.2476 77.9146 31.0413 74.5 31.0413C71.0854 31.0413 68.2917 28.2476 68.2917 24.833C68.2917 21.4184 71.0854 18.6247 74.5 18.6247Z" fill="#25E2A9"/>
<path d="M126.029 117.337C128.512 112.992 130.375 108.025 130.375 102.437C130.375 86.9167 117.958 74.5 102.437 74.5C86.9167 74.5 74.5 86.9167 74.5 102.437C74.5 117.958 86.9167 130.375 102.437 130.375C108.025 130.375 112.992 128.512 117.337 126.029L134.1 142.792L142.792 134.1L126.029 117.337ZM102.437 117.958C93.7458 117.958 86.9167 111.129 86.9167 102.437C86.9167 93.7458 93.7458 86.9167 102.437 86.9167C111.129 86.9167 117.958 93.7458 117.958 102.437C117.958 111.129 111.129 117.958 102.437 117.958Z" fill="#25E2A9"/>
</svg>
