<svg width="196" height="192" viewBox="0 0 196 192" fill="none" xmlns="http://www.w3.org/2000/svg">
<path d="M78.8461 142.287L60.0627 119.671L33.7086 153.5H139.125L105.2 108.362L78.8461 142.287ZM172.667 43.2915C172.667 19.429 153.404 0.166504 129.542 0.166504C105.679 0.166504 86.4169 19.429 86.4169 43.2915C86.4169 67.154 105.679 86.4165 129.446 86.4165C137.879 86.4165 145.738 83.9248 152.35 79.7082L182.25 109.608L195.859 95.9998L165.959 66.1957C170.175 59.4873 172.667 51.7248 172.667 43.2915ZM129.542 67.2498C123.188 67.2498 117.094 64.7257 112.601 60.2326C108.108 55.7395 105.584 49.6456 105.584 43.2915C105.584 36.9374 108.108 30.8435 112.601 26.3504C117.094 21.8573 123.188 19.3332 129.542 19.3332C135.896 19.3332 141.99 21.8573 146.483 26.3504C150.976 30.8435 153.5 36.9374 153.5 43.2915C153.5 49.6456 150.976 55.7395 146.483 60.2326C141.99 64.7257 135.896 67.2498 129.542 67.2498ZM153.5 172.667H19.3336V38.4998H77.1211C77.6961 31.5998 79.7085 25.179 82.6794 19.3332H19.3336C8.7919 19.3332 0.166901 27.9582 0.166901 38.4998V172.667C0.166901 183.208 8.7919 191.833 19.3336 191.833H153.5C164.042 191.833 172.667 183.208 172.667 172.667V113.537L153.5 94.3707V172.667Z" fill="#63F2C2"/>
</svg>
